<svg width="370" height="216" viewBox="0 0 370 216" fill="none" xmlns="http://www.w3.org/2000/svg">
<path d="M77.9156 55.7946C74.476 55.7946 71.5963 54.7947 69.2765 52.7949C67.0367 50.7151 65.9168 48.1153 65.9168 44.9956V11.0389C65.9168 7.75924 66.9967 5.1195 69.1565 3.1197C71.3163 1.0399 74.236 0 77.9156 0C81.5153 0 84.315 1.0399 86.3148 3.1197C88.3946 5.19949 89.4345 7.91923 89.4345 11.2789V44.9956C89.4345 48.1153 88.3546 50.7151 86.1948 52.7949C84.1151 54.7947 81.3553 55.7946 77.9156 55.7946ZM2.08306 11.9988C2.08306 8.95913 2.88298 6.59936 4.48283 4.91952C6.08267 3.15969 8.48244 2.27978 11.6821 2.27978H46.8387C50.1184 2.27978 52.4781 3.1197 53.918 4.79953C55.4378 6.47937 56.1978 8.83914 56.1978 11.8788C56.1978 14.8386 55.4378 17.2383 53.918 19.0781C52.4781 20.918 50.1184 21.8379 46.8387 21.8379H16.3617C15.3218 21.8379 14.5218 22.1178 13.9619 22.6778C13.402 23.1577 13.282 23.9177 13.6019 24.9576H46.7187C49.2785 24.9576 50.5583 26.1974 50.5583 28.6772C50.5583 31.157 49.2785 32.3968 46.7187 32.3968H17.3216C18.1215 33.6767 18.9614 34.5566 19.8413 35.0366C20.7212 35.5165 22.0411 35.7565 23.8009 35.7565H48.2785C52.1982 35.7565 55.0379 36.6764 56.7977 38.5162C58.5575 40.2761 59.4375 42.9158 59.4375 46.4355C59.4375 49.8751 58.5575 52.5149 56.7977 54.3547C55.0379 56.1945 52.1982 57.1144 48.2785 57.1144H27.0406C22.801 57.1144 18.9214 56.6345 15.4018 55.6746C11.9621 54.6347 9.16237 52.8748 7.00258 50.3951C4.92278 47.8353 3.80289 44.3157 3.64291 39.8361C3.56292 36.5564 3.96288 33.8367 4.84279 31.6769C5.8027 29.4371 6.88259 27.6773 8.08248 26.3974C9.28236 25.1176 10.2023 24.2776 10.8422 23.8777L9.64232 21.8379C7.64252 21.5179 5.88269 20.558 4.36284 18.9582C2.84299 17.2783 2.08306 14.9585 2.08306 11.9988ZM13.6019 88.3114C13.6019 84.9517 14.0419 82.352 14.9218 80.5122C15.8017 78.6723 16.2417 77.7524 16.2417 77.7524V68.0334C16.2417 64.9137 17.3616 62.7139 19.6014 61.434C21.9211 60.0741 24.6409 59.3942 27.7606 59.3942C30.8003 59.3942 33.48 60.0741 35.7998 61.434C38.1195 62.7139 39.2794 64.9137 39.2794 68.0334V69.9532H64.597V68.9933C64.597 65.8736 65.7568 63.5538 68.0766 62.034C70.3964 60.5141 73.1561 59.7542 76.3558 59.7542C79.4755 59.7542 82.1552 60.5141 84.395 62.034C86.6348 63.5538 87.7547 65.8736 87.7547 68.9933V88.1914C87.7547 93.0709 86.3948 96.7506 83.6751 99.2303C80.9554 101.79 77.1157 103.07 72.1562 103.07H35.4398C28.0005 103.07 22.4811 101.83 18.8814 99.3503C15.3618 96.8706 13.6019 93.1909 13.6019 88.3114ZM24.2809 80.5122C24.2809 81.2321 24.4809 81.712 24.8808 81.952C25.3608 82.112 26.2407 82.192 27.5206 82.192H62.6771C63.957 82.192 64.7969 82.112 65.1969 81.952C65.5969 81.712 65.7968 81.2321 65.7968 80.5122C65.7968 79.8722 65.5969 79.4723 65.1969 79.3123C64.7969 79.1523 63.957 79.0723 62.6771 79.0723H27.5206C26.2407 79.0723 25.3608 79.1523 24.8808 79.3123C24.4809 79.4723 24.2809 79.8722 24.2809 80.5122Z" fill="#EB5A25"/>
<path d="M59.9174 172.404C57.0377 172.404 54.6779 171.604 52.8381 170.004C51.0783 168.325 50.1984 166.245 50.1984 163.765V122.129C50.1984 119.569 51.0383 117.49 52.7181 115.89C54.4779 114.21 56.8777 113.37 59.9174 113.37C62.7171 113.37 64.9169 114.21 66.5168 115.89C68.1966 117.49 69.0365 119.649 69.0365 122.369V137.488H70.4764C71.5163 137.488 72.0362 137.008 72.0362 136.048V121.649C72.0362 118.929 72.9161 116.73 74.676 115.05C76.4358 113.29 78.8756 112.41 81.9953 112.41C85.035 112.41 87.3947 113.29 89.0746 115.05C90.7544 116.73 91.5943 118.969 91.5943 121.769V164.605C91.5943 167.165 90.6744 169.325 88.8346 171.084C87.0748 172.764 84.795 173.604 81.9953 173.604C79.0355 173.604 76.6358 172.764 74.796 171.084C72.9561 169.325 72.0362 167.165 72.0362 164.605V145.047H69.0365V163.885C69.0365 166.365 68.1966 168.405 66.5168 170.004C64.8369 171.604 62.6371 172.404 59.9174 172.404ZM0.883179 125.129C0.883179 122.329 1.60311 119.889 3.04297 117.81C4.48283 115.73 6.68261 114.69 9.64232 114.69H35.0798C38.7595 114.69 41.2792 115.73 42.6391 117.81C44.079 119.889 44.7989 122.329 44.7989 125.129C44.7989 127.929 44.079 130.408 42.6391 132.568C41.2792 134.648 38.7595 135.688 35.0798 135.688H15.8817C14.8418 135.688 13.9219 135.968 13.122 136.528C12.4021 137.088 12.2021 138.008 12.522 139.287H35.0798C36.5997 139.287 37.7196 139.527 38.4395 140.007C39.2394 140.487 39.6394 141.447 39.6394 142.887C39.6394 144.247 39.2394 145.167 38.4395 145.647C37.7196 146.127 36.5597 146.367 34.9599 146.367H15.6417C16.3617 147.487 17.2416 148.407 18.2815 149.127C19.4014 149.766 20.9212 150.086 22.841 150.086H35.7998C39.6394 150.086 42.4391 151.046 44.1989 152.966C46.0388 154.886 46.9587 157.606 46.9587 161.125C46.9587 164.565 46.0388 167.285 44.1989 169.285C42.4391 171.284 39.6394 172.284 35.7998 172.284H25.6008C21.3612 172.284 17.4816 171.684 13.9619 170.484C10.4422 169.205 7.64252 167.205 5.56272 164.485C3.48292 161.765 2.44303 158.206 2.44303 153.806C2.44303 150.686 2.88298 148.087 3.7629 146.007C4.64281 143.927 5.64271 142.247 6.7626 140.967C7.96249 139.607 8.92239 138.568 9.64232 137.848L8.44244 135.688C6.12267 135.688 4.28285 134.648 2.92298 132.568C1.56311 130.408 0.883179 127.929 0.883179 125.129ZM13.8419 187.403C13.8419 183.803 14.8818 180.963 16.9616 178.884C19.1214 176.724 22.1211 175.644 25.9607 175.644H75.8758C80.9154 175.644 84.635 176.964 87.0348 179.604C89.5145 182.163 90.7544 185.803 90.7544 190.522C90.7544 193.402 90.6744 195.842 90.5144 197.842C90.4344 199.842 90.1945 202.361 89.7945 205.401C89.3945 208.841 88.2346 211.52 86.3148 213.44C84.475 215.36 81.5553 216.2 77.5557 215.96C73.1561 215.8 70.2364 214.56 68.7965 212.24C67.4367 210.001 66.7967 207.481 66.8767 204.681C66.9567 202.841 66.5968 201.521 65.7968 200.721C64.9969 199.842 63.5171 199.402 61.3573 199.402H26.0807C22.1611 199.402 19.1214 198.322 16.9616 196.162C14.8818 193.922 13.8419 191.002 13.8419 187.403Z" fill="#EB5A25"/>
<path d="M115.603 207.201C112.644 207.201 110.004 206.161 107.684 204.081C105.444 201.921 104.324 199.002 104.324 195.322C104.324 191.802 105.444 189.003 107.684 186.923C110.004 184.763 112.723 183.683 115.843 183.683H145.48V177.324H138.641C131.122 177.324 125.242 175.724 121.003 172.524C116.843 169.325 114.763 164.605 114.763 158.366C114.763 155.246 115.323 152.566 116.443 150.326C117.563 148.007 118.883 146.127 120.403 144.687C122.003 143.247 123.402 142.287 124.602 141.807L123.522 139.887C120.963 139.887 118.803 138.928 117.043 137.008C115.283 135.008 114.403 132.448 114.403 129.328C114.403 126.289 115.323 123.769 117.163 121.769C119.083 119.769 121.683 118.769 124.962 118.769H177.757C181.677 118.769 184.556 119.769 186.396 121.769C188.236 123.769 189.156 126.289 189.156 129.328C189.156 132.448 188.236 135.008 186.396 137.008C184.556 139.008 181.677 140.007 177.757 140.007H133.361C130.642 140.007 129.482 141.047 129.882 143.127H179.197C180.637 143.127 181.717 143.527 182.437 144.327C183.237 145.127 183.637 146.207 183.637 147.567C183.637 148.847 183.237 149.966 182.437 150.926C181.717 151.806 180.637 152.246 179.197 152.246H133.841C134.481 153.286 135.241 154.126 136.121 154.766C137.081 155.406 138.361 155.726 139.961 155.726H178.357C187.316 155.726 191.796 159.326 191.796 166.525C191.796 173.724 187.316 177.324 178.357 177.324H159.159V179.724C159.159 182.363 160.679 183.683 163.719 183.683H191.796C194.915 183.683 197.475 184.803 199.475 187.043C201.555 189.203 202.595 191.962 202.595 195.322C202.595 198.762 201.555 201.601 199.475 203.841C197.475 206.081 194.915 207.201 191.796 207.201H115.603Z" fill="#EB5A25"/>
<path d="M195.476 34.8696C197.936 34.8696 199.802 35.5673 201.074 36.9628C202.304 38.4005 202.918 40.092 202.918 42.0371C202.918 43.2634 202.6 44.532 201.964 45.8429C201.328 47.1537 200.268 48.2743 198.784 49.2046C197.936 49.7543 196.854 50.1772 195.54 50.4732C194.183 50.8115 192.974 51.0864 191.914 51.2978C194.246 52.0166 196.07 52.8624 197.384 53.835C198.699 54.8075 199.78 55.8013 200.629 56.8161C201.816 58.423 202.367 60.1567 202.282 62.0173C202.155 63.9202 201.286 65.5482 199.674 66.9014C198.529 67.874 197.278 68.3814 195.921 68.4237C194.522 68.466 193.186 68.1065 191.914 67.3454C190.642 66.5842 189.603 65.4636 188.797 63.9836C187.864 62.3345 187.207 60.8967 186.825 59.6704C186.401 58.4864 185.935 57.4081 185.426 56.4356C184.875 55.463 184.005 54.4904 182.818 53.5178C182.309 53.687 181.864 53.9195 181.482 54.2155C181.101 54.5115 180.677 55.1035 180.21 55.9915C181.27 56.2453 182.224 56.8796 183.072 57.8944C183.921 58.9093 184.345 60.3259 184.345 62.1442C184.345 64.0893 183.751 65.6328 182.564 66.7745C181.376 67.9585 179.616 68.5505 177.284 68.5505C175.376 68.5505 173.828 67.9162 172.641 66.6477C171.453 65.4214 170.86 63.8779 170.86 62.0173C170.86 60.0299 171.262 58.4441 172.068 57.2601C172.831 56.1184 173.87 55.1247 175.185 54.279C175.863 53.7715 176.69 53.3275 177.666 52.9469C178.641 52.6087 179.68 52.3127 180.783 52.0589C179.044 51.8052 177.39 51.3189 175.821 50.6001C174.252 49.8812 172.81 48.8452 171.496 47.492C170.52 46.5194 169.863 45.3354 169.524 43.94C169.142 42.5868 169.142 41.2337 169.524 39.8805C169.863 38.5274 170.605 37.3856 171.75 36.4553C172.937 35.525 174.252 35.0388 175.694 34.9965C177.136 34.9542 178.514 35.2925 179.828 36.0113C181.101 36.7725 182.118 37.8508 182.882 39.2462C183.645 40.6417 184.239 42.016 184.663 43.3691C185.087 44.7646 185.574 46.0332 186.126 47.1749C186.635 48.3589 187.398 49.3103 188.416 50.0292C189.094 49.6486 189.497 49.1835 189.624 48.6338C189.751 48.1263 189.73 47.5343 189.561 46.8577C189.349 46.2234 189.137 45.5257 188.924 44.7646C188.67 44.0457 188.543 43.2846 188.543 42.4811C188.543 41.2125 188.797 39.9862 189.306 38.8022C189.815 37.6605 190.6 36.7091 191.66 35.9479C192.677 35.229 193.95 34.8696 195.476 34.8696Z" fill="#EE572C"/>
<path d="M161.029 34.8696C163.489 34.8696 165.355 35.5673 166.627 36.9628C167.857 38.4005 168.472 40.092 168.472 42.0371C168.472 43.2634 168.154 44.532 167.518 45.8429C166.881 47.1537 165.821 48.2743 164.337 49.2046C163.489 49.7543 162.408 50.1772 161.093 50.4732C159.736 50.8115 158.527 51.0864 157.467 51.2978C159.8 52.0166 161.623 52.8624 162.938 53.835C164.252 54.8075 165.334 55.8013 166.182 56.8161C167.369 58.423 167.92 60.1567 167.836 62.0173C167.708 63.9202 166.839 65.5482 165.228 66.9014C164.083 67.874 162.832 68.3814 161.475 68.4237C160.075 68.466 158.74 68.1065 157.467 67.3454C156.195 66.5842 155.156 65.4636 154.35 63.9836C153.418 62.3345 152.76 60.8967 152.379 59.6704C151.955 58.4864 151.488 57.4081 150.979 56.4356C150.428 55.463 149.559 54.4904 148.371 53.5178C147.862 53.687 147.417 53.9195 147.035 54.2155C146.654 54.5115 146.23 55.1035 145.763 55.9915C146.823 56.2453 147.778 56.8796 148.626 57.8944C149.474 58.9093 149.898 60.3259 149.898 62.1442C149.898 64.0893 149.304 65.6328 148.117 66.7745C146.929 67.9585 145.17 68.5505 142.837 68.5505C140.929 68.5505 139.381 67.9162 138.194 66.6477C137.006 65.4214 136.413 63.8779 136.413 62.0173C136.413 60.0299 136.816 58.4441 137.621 57.2601C138.385 56.1184 139.424 55.1247 140.738 54.279C141.417 53.7715 142.244 53.3275 143.219 52.9469C144.194 52.6087 145.233 52.3127 146.336 52.0589C144.597 51.8052 142.943 51.3189 141.374 50.6001C139.805 49.8812 138.363 48.8452 137.049 47.492C136.074 46.5194 135.416 45.3354 135.077 43.94C134.695 42.5868 134.695 41.2337 135.077 39.8805C135.416 38.5274 136.158 37.3856 137.303 36.4553C138.491 35.525 139.805 35.0388 141.247 34.9965C142.689 34.9542 144.067 35.2925 145.382 36.0113C146.654 36.7725 147.672 37.8508 148.435 39.2462C149.198 40.6417 149.792 42.016 150.216 43.3691C150.64 44.7646 151.128 46.0332 151.679 47.1749C152.188 48.3589 152.951 49.3103 153.969 50.0292C154.647 49.6486 155.05 49.1835 155.177 48.6338C155.305 48.1263 155.283 47.5343 155.114 46.8577C154.902 46.2234 154.69 45.5257 154.478 44.7646C154.223 44.0457 154.096 43.2846 154.096 42.4811C154.096 41.2125 154.35 39.9862 154.859 38.8022C155.368 37.6605 156.153 36.7091 157.213 35.9479C158.231 35.229 159.503 34.8696 161.029 34.8696Z" fill="#EE572C"/>
<path d="M161.029 0.423232C163.489 0.423233 165.355 1.13681 166.627 2.56397C167.857 4.03437 168.472 5.76426 168.472 7.75363C168.472 9.0078 168.154 10.3052 167.518 11.6459C166.881 12.9865 165.821 14.1326 164.337 15.084C163.489 15.6462 162.408 16.0787 161.093 16.3815C159.736 16.7274 158.527 17.0085 157.467 17.2248C159.8 17.96 161.623 18.8249 162.938 19.8196C164.252 20.8143 165.334 21.8306 166.182 22.8685C167.369 24.5119 167.92 26.2851 167.836 28.1879C167.708 30.1341 166.839 31.7991 165.228 33.183C164.083 34.1777 162.832 34.6966 161.475 34.7399C160.075 34.7831 158.74 34.4155 157.467 33.6371C156.195 32.8586 155.156 31.7126 154.35 30.1989C153.418 28.5123 152.76 27.0419 152.379 25.7877C151.955 24.5768 151.488 23.474 150.979 22.4793C150.428 21.4846 149.559 20.4899 148.371 19.4952C147.862 19.6682 147.417 19.9061 147.035 20.2088C146.654 20.5116 146.23 21.117 145.763 22.0252C146.823 22.2847 147.778 22.9334 148.626 23.9713C149.474 25.0093 149.898 26.458 149.898 28.3177C149.898 30.307 149.304 31.8856 148.117 33.0532C146.929 34.2642 145.17 34.8696 142.837 34.8696C140.929 34.8696 139.381 34.2209 138.194 32.9235C137.006 31.6693 136.413 30.0908 136.413 28.1879C136.413 26.1553 136.816 24.5335 137.621 23.3226C138.385 22.1549 139.424 21.1386 140.738 20.2737C141.417 19.7547 142.244 19.3006 143.219 18.9114C144.194 18.5654 145.233 18.2627 146.336 18.0032C144.597 17.7437 142.943 17.2464 141.374 16.5112C139.805 15.776 138.363 14.7164 137.049 13.3325C136.074 12.3378 135.416 11.1269 135.077 9.69976C134.695 8.31584 134.695 6.93193 135.077 5.54802C135.416 4.16411 136.158 2.99644 137.303 2.045C138.491 1.09356 139.805 0.596219 141.247 0.552972C142.689 0.509725 144.067 0.855703 145.382 1.5909C146.654 2.36935 147.672 3.47216 148.435 4.89932C149.198 6.32647 149.792 7.73201 150.216 9.11592C150.64 10.5431 151.128 11.8405 151.679 13.0082C152.188 14.2191 152.951 15.1922 153.969 15.9274C154.647 15.5381 155.05 15.0624 155.177 14.5002C155.305 13.9812 155.283 13.3758 155.114 12.6838C154.902 12.0351 154.69 11.3215 154.478 10.5431C154.223 9.80787 154.096 9.02942 154.096 8.20773C154.096 6.91031 154.35 5.65614 154.859 4.44522C155.368 3.27755 156.153 2.30448 157.213 1.52603C158.231 0.790832 159.503 0.423232 161.029 0.423232Z" fill="#EE572C"/>
<path d="M151.281 69.3161C156.286 69.3161 160.285 70.7805 163.28 73.7093C166.231 76.6805 167.707 80.8615 167.707 86.2521C167.707 89.5629 167.022 92.4705 165.654 94.9748C164.285 97.4791 162.381 99.4316 159.943 100.832C157.462 102.275 154.575 102.997 151.281 102.997C147.602 102.997 144.544 102.275 142.106 100.832C139.668 99.4316 137.85 97.4791 136.652 94.9748C135.412 92.4705 134.791 89.5629 134.791 86.2521C134.791 80.8615 136.16 76.6805 138.898 73.7093C141.593 70.7805 145.72 69.3161 151.281 69.3161ZM160.071 87.3345C160.071 86.0187 159.408 85.0848 158.082 84.533C156.756 84.0237 154.489 83.769 151.281 83.769C148.073 83.769 145.806 84.0237 144.48 84.533C143.154 85.0848 142.491 86.0187 142.491 87.3345C142.491 88.6079 143.154 89.4992 144.48 90.0086C145.806 90.5179 148.073 90.7726 151.281 90.7726C154.489 90.7726 156.756 90.5179 158.082 90.0086C159.408 89.4992 160.071 88.6079 160.071 87.3345Z" fill="#0A3F32"/>
<path d="M118.365 34.8696C123.37 34.8696 127.369 36.334 130.364 39.2628C133.315 42.234 134.791 46.4149 134.791 51.8056C134.791 55.1164 134.106 58.0239 132.738 60.5282C131.369 63.0326 129.465 64.9851 127.027 66.3858C124.546 67.829 121.659 68.5505 118.365 68.5505C114.687 68.5505 111.628 67.829 109.19 66.3858C106.752 64.9851 104.934 63.0326 103.736 60.5282C102.496 58.0239 101.875 55.1164 101.875 51.8056C101.875 46.4149 103.244 42.234 105.982 39.2628C108.677 36.334 112.804 34.8696 118.365 34.8696ZM127.156 52.888C127.156 51.5721 126.493 50.6383 125.166 50.0865C123.84 49.5772 121.573 49.3225 118.365 49.3225C115.157 49.3225 112.89 49.5772 111.564 50.0865C110.238 50.6383 109.575 51.5721 109.575 52.8879C109.575 54.1613 110.238 55.0527 111.564 55.562C112.89 56.0714 115.157 56.3261 118.365 56.3261C121.573 56.3261 123.84 56.0714 125.166 55.562C126.493 55.0527 127.156 54.1613 127.156 52.888Z" fill="#0A3F32"/>
<path d="M184.962 1.1887C189.967 1.1887 193.966 2.65309 196.96 5.58186C199.912 8.55309 201.388 12.734 201.388 18.1247C201.388 21.4355 200.703 24.343 199.334 26.8473C197.966 29.3516 196.062 31.3042 193.624 32.7049C191.143 34.148 188.256 34.8696 184.962 34.8696C181.283 34.8696 178.225 34.148 175.787 32.7049C173.348 31.3042 171.531 29.3516 170.333 26.8473C169.092 24.343 168.472 21.4355 168.472 18.1247C168.472 12.734 169.841 8.55308 172.579 5.58186C175.273 2.65309 179.401 1.1887 184.962 1.1887ZM193.752 19.207C193.752 17.8912 193.089 16.9574 191.763 16.4056C190.437 15.8963 188.17 15.6416 184.962 15.6416C181.754 15.6416 179.487 15.8963 178.161 16.4056C176.835 16.9574 176.172 17.8912 176.172 19.207C176.172 20.4804 176.835 21.3718 178.161 21.8811C179.487 22.3905 181.754 22.6452 184.962 22.6452C188.17 22.6452 190.437 22.3905 191.763 21.8811C193.089 21.3718 193.752 20.4804 193.752 19.207Z" fill="#0A3F32"/>
<path d="M248.423 215.995C244.972 215.995 241.847 215.214 239.048 213.653C236.313 212.092 234.165 209.88 232.602 207.017C231.04 204.09 230.258 200.674 230.258 196.771L230.356 37.6358L226.743 38.1237C224.79 38.3839 223.064 37.7008 221.567 36.0745C220.07 34.4481 219.321 32.3989 219.321 29.9268C219.321 27.4547 220.07 25.438 221.567 23.8767C223.064 22.2504 224.79 21.5673 226.743 21.8275L230.356 22.3154L230.258 8.48962C230.193 5.88744 230.942 3.83822 232.505 2.34196C234.067 0.780654 236.346 0 239.34 0C242.335 0 244.647 0.780654 246.274 2.34196C247.902 3.83822 248.65 5.88744 248.52 8.48962L248.325 22.3154L253.501 21.6324C257.016 21.1119 259.686 21.7625 261.509 23.584C263.332 25.3405 264.243 27.4547 264.243 29.9268C264.243 32.3989 263.332 34.5457 261.509 36.3672C259.751 38.1237 257.179 38.7742 253.794 38.3189L248.325 37.6358L248.227 194.136C248.227 194.982 248.52 195.763 249.106 196.478C249.692 197.129 250.408 197.324 251.255 197.064C252.231 196.804 253.24 196.251 254.282 195.405C255.389 194.559 256.789 194.136 258.481 194.136C261.02 194.136 262.974 195.047 264.341 196.869C265.708 198.69 266.392 200.935 266.392 203.602C266.392 205.684 265.643 207.7 264.145 209.652C262.713 211.539 260.662 213.067 257.993 214.238C255.324 215.409 252.134 215.995 248.423 215.995Z" fill="#EE572C"/>
<path d="M268.853 9.54766C268.853 6.75031 269.7 4.50593 271.393 2.81452C273.15 1.05804 275.559 0.179806 278.619 0.179806C281.874 0.179806 284.283 1.02551 285.846 2.71693C287.473 4.40835 288.287 6.65273 288.287 9.45008C288.287 12.1824 287.473 14.3942 285.846 16.0856C284.283 17.712 281.874 18.5252 278.619 18.5252C275.429 18.5252 272.988 17.712 271.295 16.0856C269.667 14.3942 268.853 12.2149 268.853 9.54766ZM278.619 92.446C275.559 92.446 273.281 91.6003 271.783 89.9089C270.286 88.2175 269.537 86.1032 269.537 83.5661V29.6495C269.537 26.8522 270.286 24.6403 271.783 23.014C273.281 21.3876 275.559 20.5744 278.619 20.5744C281.679 20.5744 283.958 21.3876 285.455 23.014C287.018 24.6403 287.799 26.7871 287.799 29.4544V83.5661C287.799 86.1032 286.985 88.2175 285.357 89.9089C283.795 91.6003 281.549 92.446 278.619 92.446Z" fill="#EE572C"/>
<path d="M326.776 71.9025C323.195 71.9025 320.2 70.7965 317.791 68.5847C315.447 66.3728 313.95 63.5104 313.299 59.9975H311.541V82.4413C311.541 85.1085 310.792 87.3529 309.295 89.1744C307.798 91.061 305.519 92.0043 302.459 92.0043C299.529 92.0043 297.251 91.061 295.623 89.1744C294.06 87.3529 293.279 85.0435 293.279 82.2461V45.7505C293.279 42.4978 293.149 39.7655 292.889 37.5536C292.693 35.2767 292.498 33.2275 292.303 31.406C292.042 28.6737 292.596 26.3643 293.963 24.4777C295.33 22.526 297.544 21.3551 300.603 20.9647C304.575 20.4443 307.374 21.1599 309.002 23.1115C310.695 24.9981 311.541 27.9581 311.541 31.9915V36.6754L311.932 36.773C312.257 34.2359 313.006 31.7638 314.178 29.3568C315.415 26.8847 317.14 24.868 319.354 23.3067C321.567 21.6803 324.367 20.8672 327.752 20.8672C333.416 20.8672 337.615 23.1441 340.35 27.6979C343.149 32.1866 344.549 38.2042 344.549 45.7505C344.549 63.1851 338.625 71.9025 326.776 71.9025ZM311.15 45.5554C311.15 46.5962 311.281 47.4094 311.541 47.9949C311.932 49.2309 312.745 50.1417 313.982 50.7272C315.285 51.2476 317.205 51.5079 319.744 51.5079C322.999 51.5079 325.213 51.0199 326.385 50.0441C327.622 49.0683 328.24 47.5721 328.24 45.5554C328.24 43.4736 327.654 41.9774 326.483 41.0666C325.311 40.0908 323.097 39.6029 319.842 39.6029C317.238 39.6029 315.285 39.8956 313.982 40.4811C312.745 41.0015 311.932 41.8798 311.541 43.1158C311.281 43.7013 311.15 44.5145 311.15 45.5554Z" fill="#EE572C"/>
<path d="M283.697 152.022C278.88 152.022 275.104 150.721 272.369 148.119C269.7 145.517 268.365 141.874 268.365 137.19C268.365 132.506 269.928 129.123 273.053 127.041C276.178 124.895 280.182 123.821 285.065 123.821C287.929 123.821 290.533 124.016 292.877 124.407C295.221 124.797 297.337 125.35 299.225 126.066H299.518V124.602C299.518 123.106 298.964 121.935 297.858 121.089C296.751 120.178 295.351 119.755 293.658 119.82C292.031 119.82 290.631 119.918 289.459 120.113C288.352 120.308 286.953 120.633 285.26 121.089C282.135 121.869 279.433 121.804 277.154 120.894C274.876 119.983 273.313 118.194 272.467 115.527C271.686 112.729 271.848 110.387 272.955 108.501C274.127 106.614 275.885 105.15 278.229 104.11C280.247 103.134 282.493 102.321 284.967 101.67C287.506 101.02 290.24 100.694 293.17 100.694C301.699 100.694 307.949 102.776 311.92 106.939C315.957 111.038 317.975 117.934 317.975 127.627V142.752C317.975 145.419 317.161 147.631 315.534 149.388C313.906 151.144 311.66 152.022 308.795 152.022C305.67 152.022 303.326 151.144 301.764 149.388C300.266 147.631 299.518 145.484 299.518 142.947V140.703H297.565C297.565 142.394 297.239 144.118 296.588 145.875C296.002 147.631 294.733 149.095 292.779 150.266C290.891 151.437 287.864 152.022 283.697 152.022ZM284.674 130.652C284.674 131.758 285.065 132.538 285.846 132.994C286.692 133.449 288.483 133.677 291.217 133.677C293.691 133.677 295.416 133.449 296.393 132.994C297.369 132.538 297.858 131.758 297.858 130.652C297.858 129.611 297.369 128.895 296.393 128.505C295.416 128.05 293.691 127.822 291.217 127.822C288.483 127.822 286.692 128.05 285.846 128.505C285.065 128.895 284.674 129.611 284.674 130.652Z" fill="#EE572C"/>
<path d="M347.227 152.315C342.149 152.315 337.657 151.274 332.723 149.192C328.816 147.046 325.756 144.021 323.543 140.117C321.329 136.214 320.223 131.628 320.223 126.358C320.223 121.089 321.329 116.502 323.543 112.599C325.756 108.696 328.816 105.671 332.723 103.524C337.722 101.377 342.279 100.304 347.423 100.304C351.459 100.304 355.007 100.727 358.067 101.572C361.192 102.418 363.634 103.687 365.392 105.378C367.214 107.07 368.126 109.184 368.126 111.721C368.126 114.779 367.345 117.186 365.782 118.942C364.22 120.633 361.974 121.479 359.044 121.479C357.091 121.479 355.138 121.186 353.184 120.601C351.296 120.015 348.855 119.723 345.86 119.723C343.386 119.723 341.303 120.113 339.61 120.894C337.917 121.674 337.071 123.106 337.071 125.187C337.071 127.334 337.917 128.895 339.61 129.871C341.303 130.782 343.386 131.237 345.86 131.237C347.878 131.237 349.571 131.042 350.938 130.652C352.305 130.262 353.608 129.871 354.845 129.481C356.082 129.091 357.481 128.895 359.044 128.895C362.364 128.895 364.806 129.871 366.368 131.823C367.996 133.709 368.81 136.149 368.81 139.141C368.81 141.679 367.866 143.956 365.977 145.972C364.089 147.924 361.518 149.485 358.263 150.656C355.007 151.762 351.329 152.315 347.227 152.315Z" fill="#EE572C"/>
<path d="M293.854 215.902C286.236 215.902 280.149 213.658 275.592 209.169C271.1 204.615 268.853 198.208 268.853 189.946C268.853 184.871 269.895 180.415 271.978 176.577C274.062 172.739 276.959 169.746 280.67 167.599C284.446 165.388 288.841 164.282 293.854 164.282C299.453 164.282 304.108 165.388 307.819 167.599C311.53 169.746 314.297 172.739 316.119 176.577C318.007 180.415 318.952 184.871 318.952 189.946C318.952 198.208 316.868 204.615 312.701 209.169C308.6 213.658 302.317 215.902 293.854 215.902ZM280.475 188.287C280.475 190.303 281.484 191.735 283.502 192.58C285.52 193.361 288.971 193.751 293.854 193.751C298.737 193.751 302.187 193.361 304.205 192.58C306.224 191.735 307.233 190.303 307.233 188.287C307.233 186.335 306.224 184.969 304.205 184.188C302.187 183.408 298.737 183.017 293.854 183.017C288.971 183.017 285.52 183.408 283.502 184.188C281.484 184.969 280.475 186.335 280.475 188.287Z" fill="#EE572C"/>
<path d="M322.332 190.336C322.332 185.197 323.341 180.675 325.359 176.772C327.443 172.869 330.373 169.811 334.149 167.599C337.99 165.388 342.547 164.282 347.821 164.282C351.922 164.282 355.601 165.03 358.856 166.526C362.176 168.022 364.78 170.039 366.668 172.576C368.556 175.048 369.5 177.78 369.5 180.773C369.5 183.896 368.589 186.107 366.766 187.409C364.943 188.71 362.241 189.36 358.661 189.36H338.153C338.153 191.052 338.804 192.45 340.106 193.556C341.473 194.662 343.752 195.215 346.942 195.215C348.569 195.215 350.067 195.052 351.434 194.727C352.866 194.402 354.299 194.109 355.731 193.849C357.228 193.524 358.888 193.361 360.711 193.361C363.316 193.361 365.464 194.304 367.157 196.191C368.849 198.012 369.696 200.55 369.696 203.802C369.696 207.641 367.71 210.633 363.739 212.78C359.832 214.927 354.689 216 348.309 216C343.817 216 339.585 215.122 335.613 213.365C331.707 211.609 328.517 208.844 326.043 205.071C323.569 201.233 322.332 196.321 322.332 190.336ZM353.973 186.14C354.95 186.14 355.275 185.685 354.95 184.774C354.689 183.863 353.908 182.92 352.606 181.944C351.304 180.968 349.416 180.48 346.942 180.48C344.077 180.48 341.929 181.098 340.496 182.334C339.129 183.57 338.446 184.839 338.446 186.14H353.973Z" fill="#EE572C"/>
</svg>
